HIERARCHY
ROOT root
{
	OFFSET 0.000000 0.000000 0.000000
	CHANNELS 6 Xposition Yposition Zposition Zrotation Yrotation Xrotation
	JOINT lhip
	{
		OFFSET 0.058581 -0.082280 -0.017664
		CHANNELS 3 Zrotation Yrotation Xrotation
		JOINT lknee
		{
			OFFSET 0.043451 -0.386469 0.008037
			CHANNELS 3 Zrotation Yrotation Xrotation
			JOINT lankle
			{
				OFFSET -0.014790 -0.426874 -0.037428
				CHANNELS 3 Zrotation Yrotation Xrotation
				JOINT ltoe
				{
					OFFSET 0.041054 -0.060286 0.122042
					CHANNELS 3 Zrotation Yrotation Xrotation
					End Site
					{
						OFFSET 0.000000 0.000000 0.000000
					}
				}
			}
		}
	}
	JOINT rhip
	{
		OFFSET -0.060310 -0.090513 -0.013543
		CHANNELS 3 Zrotation Yrotation Xrotation
		JOINT rknee
		{
			OFFSET -0.043257 -0.383688 -0.004843
			CHANNELS 3 Zrotation Yrotation Xrotation
			JOINT rankle
			{
				OFFSET 0.019056 -0.420046 -0.034562
				CHANNELS 3 Zrotation Yrotation Xrotation
				JOINT rtoe
				{
					OFFSET -0.034840 -0.062106 0.130323
					CHANNELS 3 Zrotation Yrotation Xrotation
					End Site
					{
						OFFSET 0.000000 0.000000 0.000000
					}
				}
			}
		}
	}
	JOINT lowerback
	{
		OFFSET 0.004439 0.124404 -0.038385
		CHANNELS 3 Zrotation Yrotation Xrotation
		JOINT upperback
		{
			OFFSET 0.004488 0.137956 0.026820
			CHANNELS 3 Zrotation Yrotation Xrotation
			JOINT chest
			{
				OFFSET -0.002265 0.056032 0.002855
				CHANNELS 3 Zrotation Yrotation Xrotation
				JOINT lowerneck
				{
					OFFSET -0.013390 0.211636 -0.033468
					CHANNELS 3 Zrotation Yrotation Xrotation
					JOINT upperneck
					{
						OFFSET 0.010113 0.088937 0.050410
						CHANNELS 3 Zrotation Yrotation Xrotation
						End Site
						{
							OFFSET 0.000000 0.000000 0.000000
						}
					}
				}
				JOINT lclavicle
				{
					OFFSET 0.071702 0.114000 -0.018898
					CHANNELS 3 Zrotation Yrotation Xrotation
					JOINT lshoulder
					{
						OFFSET 0.122921 0.045205 -0.019046
						CHANNELS 3 Zrotation Yrotation Xrotation
						JOINT lelbow
						{
							OFFSET 0.255332 -0.015649 -0.022946
							CHANNELS 3 Zrotation Yrotation Xrotation
							JOINT lwrist
							{
								OFFSET 0.265709 0.012698 -0.007375
								CHANNELS 3 Zrotation Yrotation Xrotation
								End Site
								{
									OFFSET 0.000000 0.000000 0.000000
								}
							}
						}
					}
				}
				JOINT rclavicle
				{
					OFFSET -0.082954 0.112472 -0.023707
					CHANNELS 3 Zrotation Yrotation Xrotation
					JOINT rshoulder
					{
						OFFSET -0.113228 0.046853 -0.008472
						CHANNELS 3 Zrotation Yrotation Xrotation
						JOINT relbow
						{
							OFFSET -0.260127 -0.014369 -0.031269
							CHANNELS 3 Zrotation Yrotation Xrotation
							JOINT rwrist
							{
								OFFSET -0.269108 0.006794 -0.006027
								CHANNELS 3 Zrotation Yrotation Xrotation
								End Site
								{
									OFFSET 0.000000 0.000000 0.000000
								}
							}
						}
					}
				}
			}
		}
	}
}
MOTION
Frames: 16
Frame Time: 0.033333
-0.815103 0.749053 0.884633 86.757498 -0.809281 82.398422 8.879860 3.364757 -20.213646 -12.823563 -2.584492 52.567620 5.465879 9.192626 -33.504304 0.000000 -0.000000 0.000000 -6.212884 -3.175643 -18.979495 2.937402 -0.756986 51.932171 1.176673 -8.340454 -34.781164 0.000000 -0.000000 0.000000 -1.998654 1.926885 18.980784 1.833253 -3.398852 -5.225494 0.118034 0.694473 2.256447 4.924876 8.633508 -4.441726 -5.762581 -3.016784 8.806633 -3.871820 -21.062280 -13.366360 -14.956517 -28.929774 -4.945847 28.835507 -58.376352 -5.136601 28.565643 -15.564689 19.035513 9.271207 23.285651 -8.356524 16.539945 31.065384 -3.348531 -37.129756 58.036672 -15.925797 -25.096885 16.716909 8.212583 
-0.815603 0.749001 0.884479 86.879688 -0.765175 82.372712 8.903741 3.280520 -20.315690 -12.811879 -2.617714 52.700024 5.376022 9.070247 -33.516411 0.000000 -0.000000 0.000000 -6.159498 -3.315450 -19.004898 2.917999 -0.737102 52.025591 1.139107 -8.301285 -34.764199 0.000000 -0.000000 0.000000 -2.146390 1.777944 18.973679 2.025674 -3.351161 -5.110459 0.184725 0.731837 2.293695 4.867574 8.728071 -4.736321 -5.829424 -3.081918 9.142189 -3.796587 -20.976693 -13.378517 -15.089692 -29.004465 -5.241912 28.878431 -58.338683 -4.687663 28.464178 -15.517229 18.758837 9.050909 23.131986 -8.439936 16.818358 31.280789 -3.175328 -37.483751 57.921241 -15.896421 -25.110760 16.542719 7.747892 
-0.815761 0.749051 0.884231 86.867233 -0.788226 82.313654 8.919193 3.321005 -20.259343 -12.796764 -2.558634 52.714511 5.405682 9.004895 -33.548727 0.000000 -0.000000 0.000000 -6.186759 -3.353079 -18.986790 2.895077 -0.687715 52.044777 1.170238 -8.262923 -34.762316 0.000000 -0.000000 0.000000 -2.169561 1.813341 19.013755 2.037704 -3.333969 -5.095107 0.187379 0.707521 2.350549 4.885339 8.726592 -4.710346 -5.872423 -3.072643 9.055817 -3.773428 -20.878393 -13.426262 -15.086141 -29.123829 -5.356022 28.696856 -58.288315 -4.595469 28.623580 -15.637546 18.733196 9.049101 23.082740 -8.466582 16.969387 31.391691 -3.102774 -37.677430 57.862762 -16.120766 -25.508815 16.652768 7.655983 
-0.815913 0.749428 0.884010 87.007029 -0.808796 82.302567 8.874827 3.315451 -20.334640 -12.826249 -2.570617 52.754713 5.343820 8.869623 -33.524884 0.000000 -0.000000 0.000000 -6.263946 -3.392139 -18.985921 2.851845 -0.760091 52.094205 1.193097 -8.280741 -34.743349 0.000000 -0.000000 0.000000 -2.189967 1.831334 18.975986 2.078352 -3.377241 -5.013696 0.177964 0.665819 2.332380 4.940840 8.799500 -4.748584 -5.820049 -3.046824 8.972805 -3.843573 -20.912238 -13.461293 -15.091497 -29.225520 -5.374219 28.900786 -58.163105 -4.663457 28.494253 -15.739148 18.720934 9.101747 22.979205 -8.532474 16.992229 31.367982 -3.053724 -37.808243 57.943579 -16.094435 -25.400333 16.684634 7.487859 
-0.816095 0.749659 0.883922 87.048362 -0.846241 82.297513 8.814693 3.360308 -20.335663 -12.833562 -2.616249 52.703836 5.316181 8.771592 -33.647450 0.000000 -0.000000 0.000000 -6.318982 -3.331506 -19.017356 2.757727 -0.848694 52.131555 1.242111 -8.206566 -34.738029 0.000000 -0.000000 0.000000 -2.233312 1.803525 19.078150 2.060765 -3.364993 -5.207957 0.183968 0.623366 2.371004 5.000095 8.871009 -4.762345 -5.776028 -3.015703 9.075105 -3.790240 -20.844001 -13.409542 -15.289144 -29.210161 -5.394746 29.353132 -58.188344 -4.926085 28.921576 -16.225069 18.846496 9.014671 22.879006 -8.610516 17.278336 31.416731 -2.966161 -37.654723 57.958477 -15.900411 -25.688995 16.771273 7.307390 
-0.816270 0.750056 0.883976 87.101288 -0.815964 82.274752 8.832666 3.405361 -20.358819 -12.841576 -2.610807 52.758472 5.285681 8.714288 -33.617517 0.000000 -0.000000 0.000000 -6.326561 -3.315340 -18.971732 2.712843 -0.887467 52.085695 1.251789 -8.224938 -34.686266 0.000000 -0.000000 0.000000 -2.183285 1.778192 19.155203 2.072778 -3.331224 -5.282421 0.192569 0.578277 2.379157 4.987396 8.892587 -4.920010 -5.825863 -3.064179 9.257682 -3.917827 -20.862100 -13.296399 -15.253184 -29.196461 -5.459414 29.671193 -58.222192 -5.197633 28.542993 -16.626437 18.793727 9.089616 22.866936 -8.541200 17.252879 31.403713 -2.988982 -37.856775 57.924429 -16.154964 -25.726528 16.961500 7.324567 
-0.816551 0.750393 0.884232 87.177504 -0.782052 82.187047 8.872172 3.323818 -20.328739 -12.862391 -2.556064 52.820332 5.176314 8.555453 -33.647208 0.000000 -0.000000 0.000000 -6.360966 -3.251342 -18.829368 2.730506 -0.966486 52.020240 1.287577 -8.212965 -34.686236 0.000000 -0.000000 0.000000 -2.141899 1.713345 19.215275 2.077484 -3.349950 -5.192385 0.191581 0.552701 2.343786 4.970173 8.863592 -5.130325 -5.889041 -3.172729 9.473775 -4.039287 -20.887506 -13.057208 -15.074191 -29.038405 -5.516383 30.628515 -58.404060 -6.188252 28.999547 -17.750153 18.268128 9.235391 22.989843 -8.411731 16.979005 31.405796 -3.084392 -37.743450 57.723071 -16.199100 -26.426659 17.468676 7.214304 
-0.816843 0.750897 0.884451 87.265558 -0.779803 82.172354 8.888842 3.387589 -20.343344 -12.902193 -2.505968 52.805489 5.243195 8.364471 -33.745709 0.000000 -0.000000 0.000000 -6.425862 -3.259989 -18.793958 2.699809 -1.046406 51.974019 1.324881 -8.211950 -34.631895 0.000000 -0.000000 0.000000 -2.109028 1.646996 19.220895 2.055291 -3.371106 -5.132881 0.181141 0.527749 2.267478 4.957449 8.881901 -5.199101 -5.879410 -3.070900 9.501997 -4.133766 -20.935537 -12.881312 -15.001202 -28.894194 -5.585187 31.150675 -58.537590 -6.803968 28.928738 -18.230274 17.952140 9.289232 23.044810 -8.351668 17.063300 31.405654 -3.110396 -37.847277 57.583376 -16.426575 -26.352524 17.724544 7.282208 
-0.817008 0.751342 0.884705 87.245642 -0.823237 82.174909 8.820287 3.434103 -20.332533 -12.830377 -2.434139 52.777092 5.193202 8.253453 -33.694635 0.000000 -0.000000 0.000000 -6.446142 -3.259566 -18.805661 2.589497 -0.999184 51.938585 1.360140 -8.138995 -34.599362 0.000000 -0.000000 0.000000 -2.155333 1.702618 19.319177 2.000655 -3.307596 -5.330088 0.188928 0.564391 2.202048 5.092150 8.927784 -5.184851 -5.793107 -3.099558 9.742146 -4.439330 -21.089692 -13.012355 -15.007386 -28.865895 -5.454764 31.187064 -58.515216 -6.843738 30.832312 -19.134352 18.881371 9.547205 23.073767 -8.318864 17.038678 31.208963 -3.071348 -37.523957 57.520375 -16.355877 -27.602743 18.031009 7.082522 
-0.817161 0.751911 0.884873 87.261761 -0.822566 82.179843 8.774089 3.351698 -20.357685 -12.780279 -2.388252 52.791728 5.176100 8.287687 -33.666637 0.000000 -0.000000 0.000000 -6.454808 -3.227230 -18.784293 2.574948 -0.955251 51.873045 1.355502 -8.123518 -34.619748 0.000000 -0.000000 0.000000 -2.139936 1.720214 19.301953 1.983119 -3.305384 -5.382096 0.197037 0.511794 2.183612 5.065881 8.786880 -5.269152 -5.755042 -3.121180 9.724655 -4.650200 -21.127491 -12.819103 -15.021789 -28.757906 -5.514832 31.882290 -58.490265 -7.693492 31.050445 -19.138592 18.665350 9.867823 23.244811 -8.075581 16.924141 31.225234 -3.183921 -37.577118 57.286193 -16.507158 -28.004265 18.268178 7.334355 
-0.817337 0.752440 0.884831 87.286445 -0.846309 82.175924 8.681819 3.284139 -20.351606 -12.759426 -2.409959 52.701880 5.192673 8.255459 -33.636034 0.000000 -0.000000 0.000000 -6.508390 -3.223144 -18.769789 2.510090 -0.960744 51.777562 1.394683 -8.117756 -34.465298 0.000000 -0.000000 0.000000 -2.182615 1.728022 19.259659 1.995928 -3.284005 -5.313972 0.225153 0.485416 2.228441 5.076068 8.775011 -5.491560 -5.824299 -3.076854 9.706207 -4.764966 -21.011130 -12.848851 -15.204371 -28.895521 -5.552663 32.360094 -58.306613 -8.210563 31.816723 -19.445113 18.695497 9.906642 23.172817 -8.247129 17.073504 31.323264 -3.059018 -37.478120 57.198421 -16.476228 -28.338270 18.345024 7.321249 
-0.817690 0.752742 0.884964 87.258563 -0.848507 82.200300 8.659288 3.271362 -20.403504 -12.685059 -2.343337 52.683791 5.238590 8.290019 -33.583000 0.000000 -0.000000 0.000000 -6.494569 -3.288050 -18.817164 2.491534 -0.866260 51.739199 1.377993 -8.126184 -34.463967 0.000000 -0.000000 0.000000 -2.193105 1.783596 19.208854 1.992769 -3.270737 -5.332510 0.232984 0.518812 2.285379 5.081325 8.724669 -5.542021 -5.805871 -3.059842 9.680126 -4.903349 -21.032323 -12.918150 -15.396321 -29.063638 -5.638217 32.589358 -57.892901 -8.496703 32.250538 -19.539335 18.593595 9.936854 23.173113 -8.273360 17.187249 31.259650 -2.986178 -37.736575 57.170886 -16.633489 -28.493192 18.303392 7.142348 
-0.817767 0.753095 0.885258 87.306495 -0.822616 82.156453 8.622366 3.304467 -20.342156 -12.617769 -2.400003 52.620327 5.260180 8.227581 -33.546055 0.000000 -0.000000 0.000000 -6.504227 -3.362257 -18.712879 2.424771 -0.889603 51.600815 1.410184 -7.996633 -34.376994 0.000000 -0.000000 0.000000 -2.132584 1.709638 19.371493 1.930596 -3.279972 -5.452325 0.198026 0.589230 2.197659 5.092470 8.604874 -5.550731 -5.800923 -3.111328 9.861102 -5.174859 -20.994593 -12.881693 -15.450751 -29.202573 -5.794664 32.556185 -57.742621 -8.613615 31.869335 -19.823906 18.327074 10.058408 23.112879 -8.187453 17.341889 31.230106 -2.917737 -37.999160 57.179951 -16.873456 -28.406374 18.358583 7.089808 
-0.818126 0.753361 0.885445 87.340631 -0.793471 82.247828 8.619569 3.237845 -20.464303 -12.409445 -2.313972 52.599547 5.492439 8.435522 -33.600926 0.000000 -0.000000 0.000000 -6.527310 -3.332865 -18.798486 2.379134 -1.000726 51.537369 1.440066 -7.961612 -34.276365 0.000000 -0.000000 0.000000 -2.074373 1.680879 19.446582 1.854337 -3.223741 -5.696062 0.173721 0.620831 2.182698 5.049920 8.658682 -5.763449 -5.715127 -3.049751 10.093671 -5.111136 -20.861970 -12.889455 -16.022039 -29.350573 -5.697755 33.237182 -57.470198 -9.135186 32.460588 -20.035125 18.040979 10.098284 22.974554 -8.191090 17.633409 31.225079 -2.836370 -38.112124 57.119299 -16.787505 -28.498706 18.377163 7.145620 
-0.818330 0.753500 0.885575 87.271824 -0.786269 82.263481 8.656989 3.303362 -20.455357 -12.459181 -2.311402 52.526365 5.465079 8.303687 -33.612764 0.000000 -0.000000 0.000000 -6.526350 -3.289206 -18.783531 2.347144 -0.998621 51.431063 1.430210 -7.873568 -34.208349 0.000000 -0.000000 0.000000 -2.081237 1.720985 19.515101 1.807397 -3.176512 -5.797486 0.181884 0.608229 2.142293 5.118913 8.609329 -5.817929 -5.698931 -3.070179 10.278435 -5.224145 -20.898796 -12.839034 -16.174321 -29.310686 -5.736175 33.372925 -57.397522 -9.241462 32.249325 -19.935087 18.274682 10.166764 22.948740 -8.163454 17.869098 31.211099 -2.763284 -38.340924 57.113331 -17.019354 -28.571209 18.422223 7.264630 
-0.818622 0.753759 0.885770 87.224214 -0.762365 82.297350 8.652374 3.393505 -20.472820 -12.489442 -2.393691 52.471191 5.403285 8.272853 -33.536518 0.000000 -0.000000 0.000000 -6.479954 -3.259701 -18.819059 2.349498 -0.949648 51.322368 1.423428 -7.898992 -34.144537 0.000000 -0.000000 0.000000 -2.029583 1.680522 19.565902 1.741749 -3.166821 -5.836355 0.187854 0.598397 1.966865 5.143129 8.590831 -5.613025 -5.695786 -2.829515 10.358952 -5.414101 -21.127215 -12.688501 -16.243876 -29.003031 -5.734398 33.614517 -57.172099 -8.973018 33.173313 -20.187039 19.144765 10.255041 23.201880 -7.955280 18.000596 31.120025 -2.898847 -38.346763 57.003441 -16.965841 -29.220189 18.592690 7.172927 
